<?xml version="1.0" standalone="no"?>
<!DOCTYPE svg PUBLIC "-//W3C//DTD SVG 20010904//EN"
 "http://www.w3.org/TR/2001/REC-SVG-20010904/DTD/svg10.dtd">
<svg version="1.0" xmlns="http://www.w3.org/2000/svg"
 width="400.000000pt" height="400.000000pt" viewBox="0 0 400.000000 400.000000"
 preserveAspectRatio="xMidYMid meet">
<metadata>
Created by potrace 1.11, written by Peter Selinger 2001-2013
</metadata>
<g transform="translate(0.000000,400.000000) scale(0.100000,-0.100000)"
fill="#000000" stroke="none">
<path d="M1770 3990 c-25 -5 -65 -11 -90 -15 -25 -3 -65 -11 -90 -17 -25 -5
-54 -12 -65 -14 -41 -8 -152 -43 -220 -69 -38 -14 -79 -29 -89 -32 -28 -9
-246 -123 -256 -134 -3 -3 -24 -16 -47 -29 -24 -13 -43 -27 -43 -32 0 -4 -5
-8 -10 -8 -6 0 -16 -4 -23 -10 -7 -5 -48 -38 -92 -73 -155 -123 -297 -279
-402 -440 -37 -56 -74 -113 -83 -127 -61 -93 -177 -385 -205 -517 -3 -13 -7
-33 -10 -45 -36 -164 -44 -260 -41 -458 2 -107 6 -204 9 -216 3 -12 8 -45 12
-75 12 -96 66 -291 112 -409 154 -389 417 -713 766 -941 143 -94 361 -201 452
-224 6 -1 17 -5 25 -8 17 -7 159 -46 190 -52 12 -2 29 -6 38 -9 9 -3 37 -7 62
-10 25 -4 69 -10 99 -15 71 -11 391 -11 461 0 30 5 73 11 95 14 124 18 312 73
455 133 335 141 598 351 848 677 117 153 248 433 306 655 28 107 30 117 51
250 14 91 16 455 2 505 -2 11 -8 43 -11 70 -4 28 -9 57 -11 65 -2 8 -6 27 -9
41 -18 107 -84 300 -150 439 -244 514 -702 903 -1251 1062 -54 15 -111 31
-125 33 -14 3 -36 7 -50 10 -14 3 -45 8 -70 11 -25 4 -64 10 -88 14 -55 10
-392 10 -452 0z"/>
</g>
</svg>
